<svg xmlns="http://www.w3.org/2000/svg" xmlns:xlink="http://www.w3.org/1999/xlink" width="101" height="102" version="1.1" viewBox="0 0 101 102"><title>0F28D75E-5645-40B0-8DC1-BA7E77821693</title><desc>Created with sketchtool.</desc><g id="Arrow-Website" fill="none" fill-rule="evenodd" stroke="none" stroke-width="1"><g id="arrow-meta-lines-home" transform="translate(-1032.000000, -791.000000)"><g id="features" transform="translate(160.000000, 792.000000)"><g id="feature/meta/blacky" transform="translate(804.000000, 2.000000)"><g id="arrow-meta-lines-black" transform="translate(58.500000, 0.000000)"><polygon id="shadow" fill="#263238" points="60 0 60 48.812 77.438 83.294 108 96.64" opacity=".1"/><polygon id="shadow" fill="#263238" points="77.438 83.294 109 97.647 81.774 92.235" opacity=".1"/><polygon id="shadow" fill="#263238" points="11 83.294 42.3 97.647 15.473 92.666" opacity=".1" transform="translate(26.649902, 90.470237) scale(-1, 1) translate(-26.649902, -90.470237)"/><polygon id="shadow-copy" fill="#263238" points="36 49.327 60 96.64 36 84.56" opacity=".1" transform="translate(48.000000, 72.983335) scale(-1, 1) translate(-48.000000, -72.983335)"/><polyline id="lines" stroke="#263238" stroke-width="2" points="77.018 82.547 108 96.64 60 0 12 96.64 42.901 82.547" transform="translate(60.000000, 48.320001) scale(-1, 1) translate(-60.000000, -48.320001)"/><polygon id="Path-Copy-2" stroke="#263238" stroke-width="2" points="60 48.32 36 96.64 60 84.56 84 96.64" transform="translate(60.000000, 72.480002) scale(-1, 1) translate(-60.000000, -72.480002)"/><path id="Path-22" stroke="#263238" stroke-width="2" d="M60,49.3266679 L60,85.0009104"/></g></g></g></g></g></svg>