<svg xmlns="http://www.w3.org/2000/svg" xmlns:xlink="http://www.w3.org/1999/xlink" width="96" height="105" version="1.1" viewBox="0 0 96 105"><title>167CE672-D4AF-4B39-A4C7-665EA236C13C</title><desc>Created with sketchtool.</desc><defs><linearGradient id="linearGradient-1" x1="50%" x2="50%" y1="-7.625%" y2="76.062%"><stop offset="0%" stop-color="#132532"/><stop offset="100%" stop-color="#132532" stop-opacity="0"/></linearGradient><linearGradient id="linearGradient-2" x1="51.532%" x2="50.01%" y1="8.801%" y2="99.38%"><stop offset="0%" stop-color="#379CE6"/><stop offset="100%" stop-color="#006FD0"/></linearGradient><linearGradient id="linearGradient-3" x1="51.532%" x2="50.001%" y1="8.801%" y2="99.942%"><stop offset="0%" stop-color="#5BBAFF"/><stop offset="99.937%" stop-color="#1182E5"/></linearGradient><linearGradient id="linearGradient-4" x1="100%" x2="100%" y1="0%" y2="94.929%"><stop offset="0%" stop-color="#00567F"/><stop offset="100%" stop-color="#0075AE" stop-opacity=".09"/></linearGradient><linearGradient id="linearGradient-5" x1="100%" x2="100%" y1="0%" y2="94.929%"><stop offset="0%" stop-color="#005B87"/><stop offset="100%" stop-color="#0075AE" stop-opacity=".09"/></linearGradient><linearGradient id="linearGradient-6" x1="43.9%" x2="65.507%" y1="36.883%" y2="68.113%"><stop offset="0%" stop-color="#F1F1F1"/><stop offset="100%" stop-color="#FFF"/></linearGradient><linearGradient id="linearGradient-7" x1="69.647%" x2="34.631%" y1="72.44%" y2="23.767%"><stop offset="0%" stop-color="#F4F4F4"/><stop offset="99.979%" stop-color="#EAEAEA"/></linearGradient><linearGradient id="linearGradient-8" x1="65.385%" x2="36.748%" y1="89.999%" y2="18.374%"><stop offset="0%" stop-color="#FFF"/><stop offset="99.979%" stop-color="#E6E6E6"/></linearGradient><linearGradient id="linearGradient-9" x1="50%" x2="50%" y1="0%" y2="100%"><stop offset="0%" stop-color="#EDEDED"/><stop offset="100%" stop-color="#CECECE"/></linearGradient><linearGradient id="linearGradient-10" x1="59.998%" x2="28.583%" y1="64.225%" y2="21.026%"><stop offset="0%" stop-color="#5EB4FF"/><stop offset="99.979%" stop-color="#1C8AEB"/><stop offset="100%" stop-color="#2D9DFF"/></linearGradient><linearGradient id="linearGradient-11" x1="40.813%" x2="62.842%" y1="73.264%" y2="18.379%"><stop offset="0%" stop-color="#2185E8"/><stop offset="99.979%" stop-color="#036ED8"/></linearGradient><linearGradient id="linearGradient-12" x1="50%" x2="50%" y1="0%" y2="100%"><stop offset="0%" stop-color="#4AAAFF"/><stop offset="100%" stop-color="#73BEFF"/></linearGradient></defs><g id="Arrow-Website" fill="none" fill-rule="evenodd" stroke="none" stroke-width="1"><g id="Arrow-Core-Hover" transform="translate(-275.000000, -801.000000)"><g id="features" transform="translate(160.000000, 792.000000)"><g id="feature/core/active" transform="translate(0.000000, 9.000000)"><g id="core"><g id="logos/arrow-core/color" transform="translate(103.000000, 0.000000)"><polygon id="Path-5" fill="url(#linearGradient-1)" fill-opacity=".7" points="12 94.4 60.003 70.8 108 94.4 60 115.811"/><polygon id="Path" fill="url(#linearGradient-2)" points="60 0 12 94.4 60 70.8"/><polygon id="Path" fill="url(#linearGradient-3)" points="108 0 60 94.4 108 70.8" transform="translate(84.000000, 47.200000) scale(-1, 1) translate(-84.000000, -47.200000)"/><path id="Line" stroke="#2D9DFF" stroke-width="3" d="M60.0029907,57.0787069 L60.0029907,64.001652"/><path id="Path-3" stroke="#2D9DFF" stroke-width="3" d="M49,76.7008384 L55.6397233,71.953214"/><path id="Path-4" stroke="#2D9DFF" stroke-width="3" d="M71,76.7008403 L64.5097656,72.1433207"/><ellipse id="pqth" cx="60" cy="68.833" stroke="#2D9DFF" stroke-width="3" rx="5.5" ry="5.433"/><polygon id="Path-5-Copy-2" fill="url(#linearGradient-4)" fill-opacity=".7" points="37 61.95 37 82.119 23.919 88.5" opacity=".739"/><polygon id="Path-5-Copy-4" fill="url(#linearGradient-5)" fill-opacity=".7" points="95.964 61.95 95.964 82.004 83 88.5" opacity=".659" transform="translate(89.481934, 75.225000) scale(-1, 1) translate(-89.481934, -75.225000)"/><polygon id="path-copy" fill="#FFF" points="59.997 48.183 83 61.95 82.993 89.483 59.997 103.25 37 89.483 37 61.95"/><polygon id="Path-11" fill="url(#linearGradient-6)" points="83 61.95 60 75.376 60 103.25 82.993 89.483"/><g id="Group-7" transform="translate(46.000000, 59.000000)"><g id="Group-8"><polygon id="Path-2" fill="url(#linearGradient-7)" points="14 0 0 8.012 0 25.239 14 16.754" transform="translate(7.000000, 12.619444) rotate(-180.000000) translate(-7.000000, -12.619444)"/><polygon id="Path-2-Copy" fill="url(#linearGradient-8)" points="14 0 28 8.012 28 25.239 14 16.826" transform="translate(21.000000, 12.619444) rotate(-180.000000) translate(-21.000000, -12.619444)"/><polygon id="Path-10" fill="url(#linearGradient-9)" points="14.002 17.227 28 25.248 14 33.269 0 25.257" transform="translate(14.000000, 25.248061) rotate(-180.000000) translate(-14.000000, -25.248061)"/></g><g id="Group-8-Copy" transform="translate(4.000000, 4.916667)"><polygon id="Path-2" fill="url(#linearGradient-10)" points="20 5.736 10 11.459 10 23.764 20 17.703"/><polygon id="Path-2-Copy" fill="url(#linearGradient-11)" points="0 5.736 10 11.459 10 23.764 0 17.755"/><polygon id="Path-10" fill="url(#linearGradient-12)" points="10.001 0 20 5.73 10 11.459 0 5.736"/></g></g></g></g></g></g></g></g></svg>