<svg xmlns="http://www.w3.org/2000/svg" xmlns:xlink="http://www.w3.org/1999/xlink" width="102" height="118" version="1.1" viewBox="0 0 102 118"><title>8331FB0B-C64E-4396-BD54-4696CAFC2081</title><desc>Created with sketchtool.</desc><g id="Arrow-Website" fill="none" fill-rule="evenodd" stroke="none" stroke-width="1"><g id="Arrow-Home" transform="translate(-629.000000, -789.000000)"><g id="features" transform="translate(160.000000, 792.000000)"><g id="feature/fx/black" transform="translate(357.000000, 0.000000)"><g id="arrow-fx-line-black" transform="translate(103.000000, 0.000000)"><polygon id="shadow" fill="#263238" points="60 0 60 68.453 80 64.427 73.598 79.324 108 96.64" opacity=".1"/><polygon id="shadow" fill="#263238" points="12 96.64 40 82.584 60 78.891 60 86.941" opacity=".1"/><polygon id="shadow" fill="#263238" points="73.681 79.992 108 96.64 69.379 88.316" opacity=".1"/><polygon id="shadow" fill="#263238" points="60 37.962 52.827 71.033 60 69.445" opacity=".1"/><polygon id="shadow" fill="#263238" points="60 77.558 67.561 76.024 60 107.758" opacity=".1"/><polygon id="shadow" fill="#263238" points="61 36.24 67.857 66.722 61 68.096" opacity=".1"/><polygon id="shadow" fill="#263238" points="80.402 64.427 86.44 85.883 74 79.324" opacity=".1"/><polyline id="lines" stroke="#263238" stroke-width="2" points="73.598 79.324 108 96.64 60 0 12 96.64 40.78 82.175"/><polygon id="lines" stroke="#263238" stroke-width="2" points="60.015 109.764 80 64.427 60 68.453 60.015 37.247 40 82.584 60.015 78.52"/></g></g></g></g></g></svg>