<svg xmlns="http://www.w3.org/2000/svg" xmlns:xlink="http://www.w3.org/1999/xlink" width="102" height="102" version="1.1" viewBox="0 0 102 102"><title>8C132A9A-5DBB-4CE1-B1A2-373BC4E52004</title><desc>Created with sketchtool.</desc><g id="Arrow-Website" fill="none" fill-rule="evenodd" stroke="none" stroke-width="1"><g id="Arrow-Home" transform="translate(-986.000000, -789.000000)"><g id="features" transform="translate(160.000000, 792.000000)"><g id="features/optics/black" transform="translate(714.000000, 0.000000)"><g id="arrow-optics-lines-black" transform="translate(103.000000, 0.000000)"><path id="shadow" fill="#263238" d="M60,0 L60,44.2933345 C69.8961589,44.723265 76.9641927,48.8010516 81.2041016,56.5266941 C85.4440104,64.2523367 85.0426432,72.8415269 80,82.2942648 L108,96.6400024 L60,0 Z" opacity=".1"/><path id="shadow" fill="#263238" d="M80,82.2942648 C83.609375,75.6845739 84.6707357,68.6884533 83.184082,61.3059032 C83.184082,61.3059032 86.5289714,70.6618084 93.21875,89.3736188 L80,82.2942648 Z" opacity=".1"/><polygon id="shadow" fill="#263238" points="80 82.321 108.621 97.608 74.197 88.403" opacity=".1"/><polygon id="shadow" fill="#263238" points="18.34 82.321 47.789 97.588 11 89.374" opacity=".1" transform="translate(29.394531, 89.954297) scale(-1, 1) translate(-29.394531, -89.954297)"/><path id="shadow" fill="#263238" d="M26,82.2942648 C29.609375,75.6845739 30.6707357,68.6884533 29.184082,61.3059032 C29.184082,61.3059032 32.5289714,70.6618084 39.21875,89.3736188 L26,82.2942648 Z" opacity=".1" transform="translate(32.609375, 75.339761) scale(-1, 1) translate(-32.609375, -75.339761)"/><path id="shadow" fill="#263238" d="M45.2840131,59.8797827 C45.8731986,61.3644091 47.3149156,62.4133349 49,62.4133349 C51.209139,62.4133349 53,60.6105348 53,58.3866681 C53,56.5560888 51.7865511,55.0108151 50.1252112,54.5215087 C52.9087256,52.5186 56.3176361,51.3400013 60,51.3400013 C69.3888407,51.3400013 77,59.0019018 77,68.4533351 C77,77.9047683 69.3888407,85.5666688 60,85.5666688 C50.6111593,85.5666688 43,77.9047683 43,68.4533351 C43,65.3292788 43.8315592,62.4007385 45.2840131,59.8797827 Z M60,77.5133353 C64.9705627,77.5133353 69,73.457035 69,68.4533351 C69,63.4496351 64.9705627,59.3933348 60,59.3933348 C55.0294373,59.3933348 51,63.4496351 51,68.4533351 C51,73.457035 55.0294373,77.5133353 60,77.5133353 Z" opacity=".1"/><polyline id="lines" stroke="#263238" stroke-width="2" points="79.551 82.321 108 96.64 60 0 60 0 12 96.64 40.166 82.463" transform="translate(60.000000, 48.320001) scale(-1, 1) translate(-60.000000, -48.320001)"/><ellipse id="lines" cx="60" cy="68.453" stroke="#263238" stroke-width="2" rx="24" ry="24.16"/><path id="lines" stroke="#263238" stroke-width="2" d="M75.0811897,75.5000019 C76.1750066,73.2742683 76.7890625,70.7717772 76.7890625,68.1263602 C76.7890625,58.8555102 69.2475451,51.3400013 59.9446119,51.3400013 C58.5188936,51.3400013 57.1345456,51.5165181 55.8123735,51.848818 M43.1189844,65.5849145 C42.9027505,66.7121268 42.7890625,67.8804933 42.7890625,69.0778495 C42.7890625,74.005544 44.7146156,78.4422356 47.7890625,81.5400021 M53.7890625,84.6270245 C55.6860227,85.2341786 57.7441839,85.5666688 59.8947433,85.5666688 L59.8947433,85.5666688 C64.5126205,85.5666688 68.7044628,84.0336032 71.7890625,81.5400021"/><path id="lines" stroke="#263238" stroke-width="2" d="M51,68.4533351 C51,73.457035 55.0294373,77.5133353 60,77.5133353 L60,77.5133353 C64.9705627,77.5133353 69,73.457035 69,68.4533351 C69,63.4496351 64.9705627,59.3933348 60,59.3933348 C59.7398467,59.3933348 59.4822715,59.4044465 59.2277172,59.426224"/><ellipse id="lines" cx="48.789" cy="58.387" stroke="#263238" stroke-width="2" rx="4" ry="4.027"/></g></g></g></g></g></svg>