<svg xmlns="http://www.w3.org/2000/svg" xmlns:xlink="http://www.w3.org/1999/xlink" width="102" height="110" version="1.1" viewBox="0 0 102 110"><title>E6165C5F-C3EF-4D8A-A653-2379A6500CC8</title><desc>Created with sketchtool.</desc><g id="Arrow-Website" fill="none" fill-rule="evenodd" stroke="none" stroke-width="1"><g id="Arrow-Home" transform="translate(-272.000000, -789.000000)"><g id="features" transform="translate(160.000000, 792.000000)"><g id="feature/core/black"><g id="arrow-core-line-black" transform="translate(103.000000, 0.000000)"><polygon id="shadow7" fill="#263238" points="60 0 60 50.03 83 63.42 83 83.833 108 96.64" opacity=".1"/><polygon id="shadow6" fill="#263238" points="83 63.42 96.292 91.317 83 83.833" opacity=".1"/><polygon id="shadow5" fill="#263238" points="83 84.153 108.621 97.181 83 91.317" opacity=".1"/><polygon id="shadow4" fill="#263238" points="11 84.133 36.621 97.161 11 91.297" opacity=".1" transform="translate(23.810303, 90.647190) scale(-1, 1) translate(-23.810303, -90.647190)"/><polygon id="shadow3" fill="#263238" points="37 63.42 50 71.473 50 83.553 60 89.593 60 104.887 37 91.607" opacity=".1"/><polygon id="shadow2" fill="#263238" points="60 88.959 60 77.01 70 71.473 70 83.553" opacity=".1"/><polygon id="shadow1" fill="#263238" points="37 63.42 25.248 89.593 37 84.153" opacity=".1"/><polyline id="lines6" stroke="#263238" stroke-width="2" points="83.061 84.088 108 96.64 60 0 60 0 12 96.64 36.942 84.086" transform="translate(60.000000, 48.320001) scale(-1, 1) translate(-60.000000, -48.320001)"/><polygon id="lines5" stroke="#263238" stroke-width="2" points="59.997 49.327 83 63.42 82.993 91.607 59.997 105.7 37 91.607 37 63.42"/><polygon id="lines4" stroke="#263238" stroke-width="2" points="59.999 65.433 70 71.473 69.997 83.553 59.999 89.593 50 83.553 50 71.473"/><polygon id="lines3" stroke="#263238" stroke-width="2" points="59.999 65.433 70 71.473 69.997 83.553 59.999 89.593 50 83.553 50 71.473"/><polyline id="lines2" stroke="#263238" stroke-width="2" points="37 63.42 60 77.513 83 63.42"/><path id="lines1" stroke="#263238" stroke-width="2" d="M60,105.623815 L60,77.0100019"/></g></g></g></g></g></svg>