<svg xmlns="http://www.w3.org/2000/svg" xmlns:xlink="http://www.w3.org/1999/xlink" width="102" height="110" version="1.1" viewBox="0 0 102 110"><title>8644C3B3-70A0-400D-9114-6FA311E6E11D</title><desc>Created with sketchtool.</desc><g id="Arrow-Website" fill="none" fill-rule="evenodd" stroke="none" stroke-width="1"><g id="Arrow-Incubator-Hover" stroke="#F5F7F8" stroke-width="2" transform="translate(-272.000000, -790.000000)"><g id="Group-10"><g id="features" transform="translate(160.000000, 792.000000)"><g id="feature/core/unactive" transform="translate(0.000000, 1.000000)"><g id="core"><g id="logos/arrow-core/black" transform="translate(103.000000, 0.000000)"><polyline id="lines6" points="83.061 83.531 108 96 60 0 60 0 12 96 36.942 83.529" transform="translate(60.000000, 48.000000) scale(-1, 1) translate(-60.000000, -48.000000)"/><polygon id="lines5" points="59.997 49 83 63 82.993 91 59.997 105 37 91 37 63"/><polygon id="lines4" points="59.999 65 70 71 69.997 83 59.999 89 50 83 50 71"/><polygon id="lines3" points="59.999 65 70 71 69.997 83 59.999 89 50 83 50 71"/><polyline id="lines2" points="37 63 60 77 83 63"/><path id="lines1" d="M60,104.924316 L60,76.5"/></g></g></g></g></g></g></g></svg>