<svg xmlns="http://www.w3.org/2000/svg" xmlns:xlink="http://www.w3.org/1999/xlink" width="635" height="221" version="1.1" viewBox="0 0 635 221"><title>3D4E6B25-93F9-4441-8F96-782EAF8A77D1</title><desc>Created with sketchtool.</desc><g id="Arrow-Website" fill="none" fill-rule="evenodd" stroke="none" stroke-width="1"><g id="Arrow-Home" transform="translate(-525.000000, -1226.000000)"><g id="incober" transform="translate(249.000000, 1227.000000)"><g id="ilustration/home" transform="translate(270.000000, 0.000000)"><g id="ilustration" transform="translate(6.000000, 0.000000)"><g stroke="#263238" stroke-width="2" transform="translate(42.389930, 66.888889)"><polygon id="Stroke-1" points="90.439 108.141 90.439 55.854 45.22 29.711 0 55.854 0 108.141 45.22 134.284"/><path id="Stroke-2" d="M17.76996,117.611111 L1.56996,150.95679"/><path id="Stroke-3" d="M72.66996,117.611111 L88.86996,150.95679"/><polygon id="Stroke-4" points="79.501 101.817 79.501 83.815 10.938 83.815 10.938 101.817 45.22 121.637"/><polyline id="Stroke-5" points="33.52 56.778 33.52 0 56.92 0 56.92 56.778"/><path id="Stroke-6" d="M45.11007,73.907363 L45.11007,98.2343877"/><path id="Stroke-7" d="M45.11007,19.8271605 L45.11007,67.5925926"/></g><path id="Stroke-8" stroke="#263238" stroke-width="2" d="M550.1,114.842281 L549.249842,13.3571462 C549.222248,10.0631647 546.544149,7.40740741 543.250052,7.40740741 L94.3445,7.40740741 C90.5645,7.40740741 87.5,10.4761111 87.5,14.2612963 L87.5,77.7037037"/><path id="Stroke-10" stroke="#263238" stroke-width="2" d="M70.4,66.8888889 L104.6,66.8888889"/><polygon id="Stroke-28" stroke="#263238" stroke-width="2" points="99.2 34.444 95.6 30.84 99.2 27.235 102.8 30.84"/><polygon id="Stroke-34" stroke="#263238" stroke-width="2" points="72.2 53.37 66.8 47.963 72.2 42.556 77.6 47.963"/><polygon id="Path-14" fill="#263238" points="87.61 102.361 87.61 200.846 132.829 175.03 132.829 128.011" opacity=".08"/><path id="Stroke-58" stroke="#263238" stroke-width="2" d="M285.049927,114.842281 L285.049927,17.4074074 C285.049927,11.8845599 280.572774,7.40740741 275.049927,7.40740741 L265.124512,7.40740741"/><path id="Shape" stroke="#263238" stroke-width="2" d="M217,218.854 L217,156.854 C217,149.122014 223.268014,142.854 231,142.854 L250.932617,142.854 M319.508789,142.854 C347.596029,142.854 368.661458,142.854 382.705078,142.854 M451.580078,142.854 C470.794044,142.854 492.214943,142.854 515.842773,142.854 M584.228516,142.854 C588.199386,142.854 594.456548,142.854 603,142.854 C610.731986,142.854 617,149.122014 617,156.854 L617,218.854"/><g id="core-copy-19" transform="translate(237.000000, 74.854000)"><polyline id="Path" stroke="#263238" stroke-width="2" points="67.713 81.856 96 96 48 0 48 0 0 96 28.206 81.897" transform="translate(48.000000, 48.000000) scale(-1, 1) translate(-48.000000, -48.000000)"/><polygon id="Path-Copy-2" fill="#000" fill-opacity=".1" points="89.959 94 89.984 48 96 48 96 43.988 89.986 43.988 90.009 0 42.009 96 70.214 81.897" transform="translate(69.004272, 48.000000) scale(-1, 1) translate(-69.004272, -48.000000)"/><polygon id="Path-Copy" fill="#000" fill-opacity=".1" points="75.994 58 90.001 49.598 90.001 43.988 87 43.988 87 39.988 95.95 39.988 96 0 48 96 76.206 81.897" transform="translate(72.000000, 48.000000) scale(-1, 1) translate(-72.000000, -48.000000)"/><polyline id="Shape" stroke="#263238" stroke-width="2" points="53.999 43.988 53.999 49.598 68.006 58 68 82 48 94 28 82 28 58 42.027 49.584 42.027 43.988"/><path id="Path-9" stroke="#263238" stroke-width="2" d="M62,78.8699449 L62,68.1278792 C57.4157918,71.6463666 52.7499975,71.6463666 48.0026169,68.1278792 C43.2552363,64.6093918 38.5876973,64.6093918 34,68.1278792 L34,78.8699449 L48,87.4890137 L62,78.8699449 Z"/><rect id="Rectangle" width="18" height="4" x="39" y="39.988" stroke="#263238" stroke-width="2"/><path id="Path-5" fill="#000" fill-opacity=".1" d="M48.0499268,87.4890137 L48.0499268,68.5 C52.1658936,71.6551107 56.815918,71.6551107 62,68.5 C62,71.8995768 62,75.3562251 62,78.8699449 L48.0499268,87.4890137 Z"/><polygon id="Path-2" fill="#000" points="68.006 81.775 68.006 58 83.611 89.792" opacity=".096"/><polygon id="Path-2-Copy-2" fill="#000" points="11.802 81.775 11.802 58 27.802 89.792" opacity=".096" transform="translate(19.802429, 73.895996) scale(-1, 1) translate(-19.802429, -73.895996)"/></g><g id="core-copy-21" transform="translate(370.000000, 74.854000)"><polyline id="Path" stroke="#263238" stroke-width="2" points="67.713 81.856 96 96 48 0 48 0 0 96 28.206 81.897" transform="translate(48.000000, 48.000000) scale(-1, 1) translate(-48.000000, -48.000000)"/><polygon id="Path-Copy-2" fill="#000" fill-opacity=".1" points="90.156 94 90.181 48 96.198 48 96.198 43.988 90.184 43.988 90.206 0 42.206 96 70.412 81.897" transform="translate(69.201843, 48.000000) scale(-1, 1) translate(-69.201843, -48.000000)"/><polygon id="Path-Copy" fill="#000" fill-opacity=".1" points="76.192 58 90.198 49.598 90.198 43.988 87.198 43.988 87.198 39.988 96.148 39.988 96.198 0 48.198 96 76.403 81.897" transform="translate(72.197571, 48.000000) scale(-1, 1) translate(-72.197571, -48.000000)"/><polygon id="Path-2" fill="#000" points="68 81.775 68 58 83.605 89.792" opacity=".096"/><path id="Path-5" fill="#000" fill-opacity=".1" d="M48.2474976,87.4890137 L48.2474976,68.5 C52.3634644,71.6551107 57.0134888,71.6551107 62.1975708,68.5 C62.1975708,71.8995768 62.1975708,75.3562251 62.1975708,78.8699449 L48.2474976,87.4890137 Z"/><polygon id="Path-2-Copy-2" fill="#000" points="12 81.775 12 58 28 89.792" opacity=".096" transform="translate(20.000000, 73.895996) scale(-1, 1) translate(-20.000000, -73.895996)"/><polyline id="Shape" stroke="#263238" stroke-width="2" points="53.999 43.988 53.999 49.598 68.006 58 68 82 48 94 28 82 28 58 42.027 49.584 42.027 43.988"/><path id="Path-9" stroke="#263238" stroke-width="2" d="M62,78.8699449 L62,68.1278792 C57.4157918,71.6463666 52.7499975,71.6463666 48.0026169,68.1278792 C43.2552363,64.6093918 38.5876973,64.6093918 34,68.1278792 L34,78.8699449 L48,87.4890137 L62,78.8699449 Z"/><rect id="Rectangle" width="18" height="4" x="39" y="39.988" stroke="#263238" stroke-width="2"/></g><polygon id="Path-Copy-2" fill="#000" fill-opacity=".1" points="592.156 168.854 592.181 122.854 598.198 122.854 598.198 118.842 592.184 118.842 592.206 74.854 544.206 170.854 572.412 156.751" transform="translate(571.201843, 122.854000) scale(-1, 1) translate(-571.201843, -122.854000)"/><polygon id="Path-Copy" fill="#000" fill-opacity=".1" points="578.192 132.854 592.198 124.452 592.198 118.842 589.198 118.842 589.198 114.842 598.148 114.842 598.198 74.854 550.198 170.854 578.403 156.751" transform="translate(574.197571, 122.854000) scale(-1, 1) translate(-574.197571, -122.854000)"/><polygon id="Path-2" fill="#000" points="570 156.629 570 132.854 585.605 164.646" opacity=".096"/><path id="Path-5" fill="#000" fill-opacity=".1" d="M550.247498,162.343014 L550.247498,143.354 C554.363464,146.509111 559.013489,146.509111 564.197571,143.354 C564.197571,146.753577 564.197571,150.210225 564.197571,153.723945 L550.247498,162.343014 Z"/><polygon id="Path-2-Copy-2" fill="#000" points="514 156.629 514 132.854 530 164.646" opacity=".096" transform="translate(522.000000, 148.749996) scale(-1, 1) translate(-522.000000, -148.749996)"/><polyline id="Path" stroke="#263238" stroke-width="2" points="569.713 156.71 598 170.854 550 74.854 550 74.854 502 170.854 530.206 156.751" transform="translate(550.000000, 122.854000) scale(-1, 1) translate(-550.000000, -122.854000)"/><g id="core-copy-22" stroke="#263238" stroke-width="2" transform="translate(530.000000, 113.854000)"><polyline id="Shape" points="25.999 4.988 25.999 10.598 40.006 19 40 43 20 55 0 43 0 19 14.027 10.584 14.027 4.988"/><path id="Path-9" d="M34,39.8699449 L34,29.1278792 C29.4157918,32.6463666 24.7499975,32.6463666 20.0026169,29.1278792 C15.2552363,25.6093918 10.5876973,25.6093918 6,29.1278792 L6,39.8699449 L20,48.4890137 L34,39.8699449 Z"/><rect id="Rectangle" width="18" height="4" x="11" y=".988"/></g><path id="Stroke-58-Copy" stroke="#263238" stroke-width="2" d="M417.925415,114.842281 L417.925415,17.4074074 C417.925415,11.8845599 413.448263,7.40740741 407.925415,7.40740741 L398,7.40740741"/><path id="Stroke-98" stroke="#263238" stroke-width="2" d="M74,25.4320988 L74,27.2345679"/><path id="Stroke-100" stroke="#263238" stroke-width="2" d="M98.3,49.7654321 L98.3,51.5679012"/><path id="Stroke-158" stroke="#263238" stroke-width="2" d="M173,218.296296 L0.2,218.296296"/><path id="Stroke-158-Copy" stroke="#263238" stroke-width="2" d="M634.130859,218.516109 L203,218.516109"/><g id="Group-6" transform="translate(167.000000, 0.854000)"><circle id="Oval" cx="6.5" cy="6.5" r="6.5" fill="#F5F7F8" stroke="#263238" stroke-width="2"/><path id="Oval-Copy-3" fill="#263238" d="M6.5,13 C10.0898509,13 13,10.0898509 13,6.5 C7.92626953,6.5 4.12280273,6.55340741 0,6.5 C0,10.0898509 2.91014913,13 6.5,13 Z" opacity=".1"/></g><g id="Group" transform="translate(376.000000, 0.854000)"><circle id="Oval-Copy" cx="6.5" cy="6.5" r="6.5" fill="#F5F7F8" stroke="#263238" stroke-width="2"/><path id="Oval-Copy-3" fill="#263238" d="M7.27929688,13.7822266 C10.8691477,13.7822266 13.7792969,10.8720774 13.7792969,7.28222656 C8.70556641,7.28222656 4.90209961,7.33563397 0.779296875,7.28222656 C0.779296875,10.8720774 3.689446,13.7822266 7.27929688,13.7822266 Z" opacity=".1"/></g><g id="Group-4" transform="translate(509.000000, 0.854000)"><circle id="Oval-Copy-2" cx="6.5" cy="6.5" r="6.5" fill="#F5F7F8" stroke="#263238" stroke-width="2"/><path id="Oval-Copy-3" fill="#263238" d="M6.5,13.5 C10.0898509,13.5 13,10.5898509 13,7 C7.92626953,7 4.12280273,7.05340741 0,7 C0,10.5898509 2.91014913,13.5 6.5,13.5 Z" opacity=".1"/></g><polygon id="Path-15" fill="#263238" points="87.89 188.526 53.328 168.706 53.328 150.704 121.891 150.704 121.891 168.706" opacity=".2"/><rect id="Rectangle" width="23" height="6" x="76" y="66.854" fill="#263238" opacity=".08"/></g></g></g></g></g></svg>