<svg xmlns="http://www.w3.org/2000/svg" xmlns:xlink="http://www.w3.org/1999/xlink" width="1360" height="297" version="1.1" viewBox="0 0 1360 297"><title>394308FC-8343-4246-918C-0F59C854749B</title><desc>Created with sketchtool.</desc><g id="Arrow-Website" fill="none" fill-rule="evenodd" stroke="none" stroke-linecap="round" stroke-linejoin="round" stroke-width="1" opacity=".2"><g id="Arrow-Home" stroke="#000" transform="translate(0.000000, -1467.000000)"><g id="background"><g id="lines-footer-bg" transform="translate(-281.000000, 1408.000000)"><g id="Group-111"><path id="Stroke-6" stroke-dasharray="100 20 40 10 5 10" d="M1168,344 L932,225"/><path id="Stroke-7" stroke-dasharray="100 20 40 10 5 10" d="M519,353 L696,262"/><path id="Stroke-13" stroke-dasharray="100 20 40 10 5 10" d="M1000,316 L1078,275"/><path id="Stroke-1" stroke-dasharray="100 20 40 10 5 10" d="M1287.5,355 L1287.5,237"/><path id="Stroke-3" stroke-dasharray="100 20 40 10 5 10" d="M696.5,355 L696.5,261"/><path id="Stroke-8" stroke-dasharray="100 20 40 10 5 10" d="M1641,355 L1445,254"/><path id="Stroke-10" stroke-dasharray="100 20 40 10 5 10" d="M1330,356 L1433,300"/><path id="Stroke-14" stroke-dasharray="100 20 40 10 5 10" d="M1400,354 L1222,262"/><path id="Stroke-16" stroke-dasharray="100 20 40 10 5 10" d="M1178,354 L1354,262"/><path id="Stroke-19" stroke-dasharray="100 20 40 10 5 10" d="M1475,331 L1637,246"/><path id="Stroke-20" d="M1535,231 L1579,254"/><path id="Stroke-21" stroke-dasharray="37.327 9.332 4.666 9.332" d="M1596,263 L1646,289"/><path id="Stroke-23" d="M1595,284 L1639,307"/><path id="Stroke-26" stroke-dasharray="100 20 40 10 5 10" d="M999,355 L807,255"/><path id="Stroke-28" stroke-dasharray="100 20 40 10 5 10" d="M671,356 L892,240"/><path id="Stroke-30" stroke-dasharray="100 20 40 10 5 10" d="M833.5,255 L833.5,355"/><path id="Stroke-40" stroke-dasharray="100 20 40 10 5 10" d="M1813,308 L1534,163"/><path id="Stroke-41" d="M1593,231 L1637,208"/><path id="Stroke-46" stroke-dasharray="81.192" d="M1610,356 L1682,318"/><path id="Stroke-52" stroke-dasharray="100 20 40 10 5 10" d="M1056,356 L1138,313"/><path id="Stroke-54" d="M666,247 L711,270"/><path id="Stroke-55" stroke-dasharray="20.377 5.094 2.547 5.094" d="M719,275 L746,289"/><path id="Stroke-56" stroke-dasharray="50.941 10.188 20.377 5.094 2.547 5.094" d="M749,290 L831,332"/><path id="Stroke-57" d="M833,332 L878,355"/><path id="Stroke-60" stroke-dasharray="39.227 9.807 4.903 9.807" d="M281,137 L333,164"/><path id="Stroke-61" d="M338,166 L383,189"/><path id="Stroke-62" d="M266,257 L310,280"/><path id="Stroke-63" stroke-dasharray="53.003 13.251 6.625 13.251" d="M334,292 L405,329"/><path id="Stroke-64" d="M410,331 L454,354"/><path id="Stroke-69" d="M514,318 L470,295"/><path id="Stroke-70" stroke-dasharray="36.213 9.053 4.527 9.053" d="M453,286 L405,261"/><path id="Stroke-71" stroke-dasharray="90.533 18.107 36.213 9.053 4.527 9.053" d="M402,259 L257,184"/><path id="Stroke-78" stroke-dasharray="100 20 40 10 5 10" d="M369,356 L540.121943,266 L720,356"/><path id="Stroke-80" stroke-dasharray="100 20 40 10 5 10" d="M373,106 L219,26"/><path id="Stroke-83" stroke-dasharray="100 20 40 10 5 10" d="M281,264 L384,210"/><path id="Stroke-86" d="M283,332 L327,355"/><path id="Stroke-98" stroke-dasharray="100 20 40 10 5 10" d="M870,286.940467 C870,275.348703 878.282458,270.679839 888.500502,276.511948 C898.717542,282.344058 907,296.468761 907,308.059533 C907,319.651297 898.717542,324.320161 888.500502,318.488052 C878.282458,312.655942 870,298.532232 870,286.940467 Z"/><path id="Stroke-102" stroke-dasharray="100 20 40 10 5 10" d="M1600.5,254 L1600.5,290"/><path id="Stroke-106" stroke-dasharray="100 20 40 10 5 10" d="M1122.5,355 L1122.5,308"/></g></g></g></g></g></svg>