<svg xmlns="http://www.w3.org/2000/svg" xmlns:xlink="http://www.w3.org/1999/xlink" width="96" height="109" version="1.1" viewBox="0 0 96 109"><title>C0608B02-756D-4959-98D1-E716A300CBBB</title><desc>Created with sketchtool.</desc><defs><linearGradient id="linearGradient-1" x1="59.133%" x2="59.133%" y1="-11.406%" y2="85.342%"><stop offset="0%" stop-color="#FFAE00"/><stop offset="100%" stop-color="#E54F00"/></linearGradient><linearGradient id="linearGradient-2" x1="50%" x2="50%" y1="9.63%" y2="100%"><stop offset="0%" stop-color="#FFB800"/><stop offset="100%" stop-color="#E54F00"/></linearGradient><linearGradient id="linearGradient-3" x1="51.275%" x2="50.399%" y1="87.336%" y2="34.947%"><stop offset="0%" stop-color="#E8E8E8"/><stop offset="100%" stop-color="#FFF"/></linearGradient><linearGradient id="linearGradient-4" x1="39.528%" x2="46.007%" y1="50%" y2="12.348%"><stop offset="0%" stop-color="#DBDBDB"/><stop offset="100%" stop-color="#FFF"/></linearGradient><linearGradient id="linearGradient-5" x1="68.759%" x2="68.759%" y1="50%" y2="100%"><stop offset="0%" stop-color="#D23C00"/><stop offset="100%" stop-color="#CC5F00" stop-opacity="0"/></linearGradient><linearGradient id="linearGradient-6" x1="68.759%" x2="68.759%" y1="50%" y2="100%"><stop offset="0%" stop-color="#D23C00"/><stop offset="100%" stop-color="#CC5F00" stop-opacity="0"/></linearGradient><linearGradient id="linearGradient-7" x1="50%" x2="50%" y1="-7.625%" y2="76.062%"><stop offset="0%" stop-color="#132532"/><stop offset="100%" stop-color="#132532" stop-opacity="0"/></linearGradient><linearGradient id="linearGradient-8" x1="50%" x2="50%" y1="0%" y2="100%"><stop offset="0%" stop-color="#FFAE00"/><stop offset="100%" stop-color="#E54F00"/></linearGradient><linearGradient id="linearGradient-9" x1="50%" x2="50%" y1="-18.425%" y2="83.897%"><stop offset="0%" stop-color="#FFAE00" stop-opacity="0"/><stop offset="100%" stop-color="#E54F00"/></linearGradient><linearGradient id="linearGradient-10" x1="50%" x2="50%" y1="0%" y2="230.859%"><stop offset="0%" stop-color="#FFAE00"/><stop offset="100%" stop-color="#E54F00"/></linearGradient><linearGradient id="linearGradient-11" x1="50%" x2="50%" y1="0%" y2="41.333%"><stop offset="0%" stop-color="#E9E9E9"/><stop offset="100%" stop-color="#FFF"/></linearGradient></defs><g id="Arrow-Website" fill="none" fill-rule="evenodd" stroke="none" stroke-width="1"><g id="feature/incubator/active" transform="translate(-12.000000, 0.000000)"><g id="logos/arrow-incubator/color" transform="translate(12.000000, 0.000000)"><polygon id="Path" fill="url(#linearGradient-1)" points="48 0 0 96 48 72"/><polygon id="Path" fill="url(#linearGradient-2)" points="96 0 48 96 96 72" transform="translate(72.000000, 48.000000) scale(-1, 1) translate(-72.000000, -48.000000)"/><polygon id="path-copy" fill="#FFF" points="48 46 68.006 58 68 82 48 94 28 82 28 58"/><polygon id="path-copy-3" fill="url(#linearGradient-3)" points="48 46 68.006 58 68 82 48 94"/><polygon id="path-copy-2" fill="url(#linearGradient-4)" points="47.998 51 64 60.5 63.995 79.5 47.998 89 32 79.5 32 60.5"/><rect id="bound" width="28" height="28" x="34" y="56" opacity=".262"/><polygon id="Path-5-Copy" fill="url(#linearGradient-5)" fill-opacity=".7" points="68 89.129 82.176 58.129 82.176 81.794" opacity=".598" transform="translate(75.087891, 73.628906) scale(-1, 1) translate(-75.087891, -73.628906)"/><polygon id="Path-5-Copy-2" fill="url(#linearGradient-6)" fill-opacity=".7" points="14.035 88.976 28 58 28 82" opacity=".598"/><polygon id="Path-5" fill="url(#linearGradient-7)" fill-opacity=".7" points="0 96 28 82 48.003 94 68.006 82 96 96 48 117.773"/><path id="Path-9" fill="url(#linearGradient-8)" d="M64,80.1944588 L64,67.9882813 C58.7609049,71.9863281 53.4285685,71.9863281 48.0029907,67.9882813 C42.5774129,63.9902344 37.2430827,63.9902344 32,67.9882813 L32,80.1944588 L48,89.9882812 L64,80.1944588 Z"/><path id="Path-9-Copy" fill="url(#linearGradient-9)" d="M48.0029907,67.9882813 C42.5774129,63.9902344 37.2430827,63.9902344 32,67.9882813 L32,80.1944588 L48,89.9882812 C47.9856771,82.171875 47.986674,74.8385417 48.0029907,67.9882813 Z" opacity=".575" style="mix-blend-mode:multiply"/><circle id="Oval" cx="57.5" cy="66.488" r="2.5" fill="url(#linearGradient-10)"/><circle id="Oval-Copy-3" cx="51.5" cy="63.488" r="1.5" fill="url(#linearGradient-10)"/><rect id="Rectangle" width="12" height="9" x="42" y="43.988" fill="url(#linearGradient-11)"/><rect id="Rectangle" width="18" height="4" x="39" y="39.988" fill="#FFF"/></g></g></g></svg>