<svg xmlns="http://www.w3.org/2000/svg" xmlns:xlink="http://www.w3.org/1999/xlink" width="96" height="108" version="1.1" viewBox="0 0 96 108"><title>B22AD727-F2D6-4A1A-8D14-7821A2066F3A</title><desc>Created with sketchtool.</desc><defs><linearGradient id="linearGradient-1" x1="50%" x2="50%" y1=".53%" y2="100%"><stop offset=".029%" stop-color="#00D8B2"/><stop offset="100%" stop-color="#00A394"/></linearGradient><linearGradient id="linearGradient-2" x1="50%" x2="50%" y1=".501%" y2="100%"><stop offset="0%" stop-color="#1EFFD3"/><stop offset="100%" stop-color="#00B4A4"/></linearGradient><linearGradient id="linearGradient-3" x1="52.125%" x2="36.875%" y1="16.157%" y2="100%"><stop offset="0%" stop-color="#005948"/><stop offset="100%" stop-color="#18CDAA" stop-opacity="0"/></linearGradient><linearGradient id="linearGradient-4" x1="52.173%" x2="36.581%" y1="16.157%" y2="100%"><stop offset="0%" stop-color="#005948"/><stop offset="100%" stop-color="#18CDAA" stop-opacity="0"/></linearGradient><linearGradient id="linearGradient-5" x1="50%" x2="50%" y1="-7.625%" y2="76.062%"><stop offset="0%" stop-color="#132532"/><stop offset="100%" stop-color="#132532" stop-opacity="0"/></linearGradient><linearGradient id="linearGradient-6" x1="50%" x2="50%" y1="0%" y2="100%"><stop offset="0%" stop-color="#E9E9E9"/><stop offset="78.143%" stop-color="#FFF"/><stop offset="100%" stop-color="#CEE7E3"/></linearGradient><linearGradient id="linearGradient-7" x1="50%" x2="50%" y1="0%" y2="100%"><stop offset="0%" stop-color="#2AFFCE"/><stop offset="100%" stop-color="#00A18F" stop-opacity="0"/></linearGradient><linearGradient id="linearGradient-8" x1="50%" x2="50%" y1="100%" y2="16.459%"><stop offset="0%" stop-color="#2AFFCE"/><stop offset="100%" stop-color="#009A77" stop-opacity="0"/></linearGradient><linearGradient id="linearGradient-9" x1="9.394%" x2="52.361%" y1="8.255%" y2="50%"><stop offset="0%" stop-color="#FFF"/><stop offset="100%" stop-color="#20DCB3" stop-opacity="0"/></linearGradient><linearGradient id="linearGradient-10" x1="11.216%" x2="74.399%" y1="10.795%" y2="80.516%"><stop offset="0%" stop-color="#FFF"/><stop offset="100%" stop-color="#88FFE4" stop-opacity="0"/></linearGradient><linearGradient id="linearGradient-11" x1="11.216%" x2="74.399%" y1="10.795%" y2="80.516%"><stop offset="0%" stop-color="#FFF"/><stop offset="100%" stop-color="#88FFE4" stop-opacity="0"/></linearGradient><radialGradient id="radialGradient-12" cx="80.687%" cy="88.656%" r="42.06%" fx="80.687%" fy="88.656%" gradientTransform="translate(0.806868,0.886556),scale(1.000000,0.993377),rotate(-112.304057),translate(-0.806868,-0.886556)"><stop offset="0%" stop-color="#FFF"/><stop offset="100%" stop-color="#FFF" stop-opacity="0"/></radialGradient></defs><g id="Arrow-Website" fill="none" fill-rule="evenodd" stroke="none" stroke-width="1"><g id="Arrow-Optics-Hover" transform="translate(-989.000000, -794.000000)"><g id="features" transform="translate(160.000000, 792.000000)"><g id="feature/optics/active" transform="translate(714.000000, 2.000000)"><g id="optics"><g id="logos/arrow-optics/color" transform="translate(103.000000, 0.000000)"><polygon id="Path" fill="url(#linearGradient-1)" points="60 0 12 96.64 60 72.48"/><polygon id="Path" fill="url(#linearGradient-2)" points="108 0 60 96.64 108 72.48" transform="translate(84.000000, 48.320001) scale(-1, 1) translate(-84.000000, -48.320001)"/><rect id="bound" width="28" height="28.187" x="46" y="56.373" opacity=".262"/><polygon id="Path-5-Copy" fill="url(#linearGradient-3)" fill-opacity=".7" points="80 89.723 94.176 58.516 94.176 82.339" opacity=".724" transform="translate(87.087891, 74.119767) scale(-1, 1) translate(-87.087891, -74.119767)"/><polygon id="Path-5-Copy-2" fill="url(#linearGradient-4)" fill-opacity=".7" points="25.599 89.74 40 58.387 40 82.547" opacity=".724"/><polygon id="Path-5" fill="url(#linearGradient-5)" fill-opacity=".7" points="12 96.64 60.003 72.48 108 96.64 60 118.559"/><g id="optics" transform="translate(36.000000, 44.293334)"><ellipse id="Oval-Copy-7" cx="24" cy="24.16" fill="#FFF" rx="24" ry="24.16"/><ellipse id="Oval-Copy-6" cx="24" cy="24.16" fill="url(#linearGradient-6)" rx="20.571" ry="20.709"/><ellipse id="Oval" cx="24" cy="24.16" fill="#01362C" rx="18" ry="18.12"/><ellipse id="Oval-Copy-11" cx="24" cy="24.16" fill="url(#linearGradient-7)" rx="15" ry="15.1"/><ellipse id="Oval-Copy-12" cx="24" cy="24.16" fill="url(#linearGradient-8)" rx="9" ry="9.06"/><ellipse id="Oval-Copy-9" cx="24" cy="24.16" fill="url(#linearGradient-9)" rx="13" ry="13.087"/><ellipse id="Oval-Copy-15" cx="24" cy="24.16" fill="url(#linearGradient-10)" opacity=".684" rx="6" ry="6.04"/><ellipse id="Oval-Copy-17" cx="20.5" cy="19.63" fill="url(#linearGradient-11)" opacity=".684" rx="3.5" ry="3.523"/><path id="Combined-Shape" fill="url(#radialGradient-12)" d="M9.00846162,23.6479737 C9.26731411,31.2024417 15.4324793,37.2466676 23,37.2466676 C30.7319865,37.2466676 37,30.9368672 37,23.1533339 C37,15.5353629 30.9958023,9.32909644 23.491364,9.06851826 C23.6602173,9.06285456 23.8297775,9.06000023 24,9.06000023 C32.2842712,9.06000023 39,15.8205007 39,24.1600006 C39,32.4995005 32.2842712,39.260001 24,39.260001 C15.7157288,39.260001 9,32.4995005 9,24.1600006 C9,23.9886433 9.00283543,23.8179527 9.00846162,23.6479737 Z" opacity=".268"/></g></g></g></g></g></g></g></svg>