<svg xmlns="http://www.w3.org/2000/svg" xmlns:xlink="http://www.w3.org/1999/xlink" width="64" height="64" version="1.1" viewBox="0 0 64 64"><title>typeclasses_icon</title><desc>Created with Sketch.</desc><g id="arrow-ui" fill="none" fill-rule="evenodd" stroke="none" stroke-width="1"><g id="icons" transform="translate(-65.000000, -39.000000)"><g id="typeclasses_icon" transform="translate(65.000000, 39.000000)"><polygon id="background" fill="#2F5DC1" points="32 0 59.713 16 59.713 48 32 64 4.287 48 4.287 16"/><path id="&lt;_&gt;" fill="#FFF" d="M16.812,30.985 L16.812,30.135 L24.751,25.205 L25.72,26.735 L19.532,30.475 L25.72,34.13 L24.751,35.66 L16.812,30.985 Z M27.726,37.989 L35.274,37.989 L35.274,39.808 L27.726,39.808 L27.726,37.989 Z M38.181,35.66 L37.212,34.13 L43.4,30.475 L37.212,26.735 L38.181,25.205 L46.12,30.135 L46.12,30.985 L38.181,35.66 Z"/></g></g></g></svg>