<svg xmlns="http://www.w3.org/2000/svg" xmlns:xlink="http://www.w3.org/1999/xlink" width="110" height="110" version="1.1" viewBox="0 0 110 110"><title>arrow-brand</title><desc>Created with Sketch.</desc><defs><linearGradient id="linearGradient-1" x1="50%" x2="50%" y1="0%" y2="100%"><stop offset="0%" stop-color="#F99409"/><stop offset="100%" stop-color="#E37A73"/></linearGradient><linearGradient id="linearGradient-2" x1="50%" x2="50%" y1="0%" y2="100%"><stop offset="0%" stop-color="#05CDFF"/><stop offset="100%" stop-color="#6A8EFF"/></linearGradient><path id="path-3" d="M51,78.3825314 L51,0.208567454 L102,107.798507 L51.0033537,78.380597 Z"/><filter id="filter-4" width="103.9%" height="103.7%" x="-2%" y="-.9%" filterUnits="objectBoundingBox"><feOffset dx="0" dy="2" in="SourceAlpha" result="shadowOffsetOuter1"/><feColorMatrix in="shadowOffsetOuter1" type="matrix" values="0 0 0 0 0.0549019608 0 0 0 0 0.145098039 0 0 0 0 0.317647059 0 0 0 0.11 0"/></filter><linearGradient id="linearGradient-5" x1="50%" x2="50%" y1="0%" y2="100%"><stop offset="0%" stop-color="#00B5E2"/><stop offset="100%" stop-color="#4D72E5"/></linearGradient><path id="path-6" d="M0,78.3825181 L0,0.203426878 L51,107.597015 L0.00335366624,78.380597 Z"/><filter id="filter-7" width="103.9%" height="103.7%" x="-2%" y="-.9%" filterUnits="objectBoundingBox"><feOffset dx="0" dy="2" in="SourceAlpha" result="shadowOffsetOuter1"/><feColorMatrix in="shadowOffsetOuter1" type="matrix" values="0 0 0 0 0.0549019608 0 0 0 0 0.145098039 0 0 0 0 0.317647059 0 0 0 0.11 0"/></filter></defs><g id="Page-1" fill="none" fill-rule="evenodd" stroke="none" stroke-width="1"><g id="arrow-brand"><g id="logo" transform="translate(4.000000, 1.000000)"><polygon id="path" fill="url(#linearGradient-1)" points="51.001 78.179 68 87.851 51 97.522 34 87.851" opacity=".8"/><polygon id="path" fill="url(#linearGradient-1)" points="51.001 77.978 68 87.649 51 97.321"/><g id="path"><use fill="#000" fill-opacity="1" filter="url(#filter-4)" xlink:href="#path-3"/><use fill="url(#linearGradient-2)" fill-rule="evenodd" xlink:href="#path-3"/></g><g id="path" opacity=".9" transform="translate(25.500000, 53.899254) scale(-1, 1) translate(-25.500000, -53.899254)"><use fill="#000" fill-opacity="1" filter="url(#filter-7)" xlink:href="#path-6"/><use fill="url(#linearGradient-5)" fill-rule="evenodd" xlink:href="#path-6"/></g></g></g></g></svg>