<svg xmlns="http://www.w3.org/2000/svg" xmlns:xlink="http://www.w3.org/1999/xlink" width="38" height="41" version="1.1" viewBox="0 0 38 41"><title>arrow-brand-sidebar</title><desc>Created with Sketch.</desc><defs><filter id="filter-1" width="102.6%" height="105%" x="-1.3%" y="-1.2%" filterUnits="objectBoundingBox"><feOffset dx="0" dy="1" in="SourceAlpha" result="shadowOffsetOuter1"/><feColorMatrix in="shadowOffsetOuter1" result="shadowMatrixOuter1" type="matrix" values="0 0 0 0 0 0 0 0 0 0 0 0 0 0 0 0 0 0 0.05 0"/><feMerge><feMergeNode in="shadowMatrixOuter1"/><feMergeNode in="SourceGraphic"/></feMerge></filter><linearGradient id="linearGradient-2" x1="50%" x2="50%" y1="22.816%" y2="73.728%"><stop offset="0%" stop-color="#F99406"/><stop offset="100%" stop-color="#DB7190"/></linearGradient><linearGradient id="linearGradient-3" x1="50%" x2="50%" y1="0%" y2="100%"><stop offset="0%" stop-color="#00B5E2"/><stop offset="100%" stop-color="#4D72E5"/></linearGradient><linearGradient id="linearGradient-4" x1="50%" x2="50%" y1="0%" y2="100%"><stop offset="0%" stop-color="#05CDFF"/><stop offset="100%" stop-color="#6A8EFF"/></linearGradient><linearGradient id="linearGradient-5" x1="50%" x2="50%" y1="0%" y2="100%"><stop offset="0%" stop-color="#61A8FF"/><stop offset="100%" stop-color="#4B74E5"/></linearGradient></defs><g id="arrow-ui" fill="none" fill-rule="evenodd" stroke="none" stroke-width="1"><g id="arrow-brand-sidebar" filter="url(#filter-1)"><polygon id="path" fill="url(#linearGradient-2)" points="0 .364 12.544 7.502 0 14.64"/><polygon id="path" fill="url(#linearGradient-2)" points="37.632 .363 25.088 7.502 37.632 14.64"/><polygon id="path" fill="url(#linearGradient-3)" points="18.816 4 0 14.707 0 28.984 18.816 39.691"/><polygon id="path" fill="url(#linearGradient-4)" points="18.816 4 37.631 14.707 37.631 28.984 18.816 39.691"/><polygon id="path" fill="url(#linearGradient-5)" points="6.272 11.068 6.271 11.068 .001 .363 .001 14.636 0 14.637 0 28.913 6.273 32.485 15.68 27.118"/><polygon id="path" fill="url(#linearGradient-5)" points="37.632 14.639 37.632 .363 31.36 11.071 31.626 11.222 31.36 11.071 21.952 27.121 31.36 32.485 37.632 28.916"/><polygon id="shadow" fill="#000" points="21.95 27.12 29.208 33.71 31.361 32.485" opacity=".388"/><polygon id="shadow" fill="#000" points="6.272 27.12 13.53 33.71 15.683 32.485" opacity=".388" transform="translate(10.977566, 30.415092) scale(-1, 1) translate(-10.977566, -30.415092)"/></g></g></svg>