<svg xmlns="http://www.w3.org/2000/svg" xmlns:xlink="http://www.w3.org/1999/xlink" width="102" height="109" version="1.1" viewBox="0 0 102 109"><title>arrow-brand</title><desc>Created with Sketch.</desc><defs><linearGradient id="linearGradient-1" x1="50%" x2="50%" y1="22.816%" y2="73.728%"><stop offset="0%" stop-color="#F99406"/><stop offset="100%" stop-color="#DB7190"/></linearGradient><linearGradient id="linearGradient-2" x1="50%" x2="50%" y1="0%" y2="100%"><stop offset="0%" stop-color="#00B5E2"/><stop offset="100%" stop-color="#4D72E5"/></linearGradient><linearGradient id="linearGradient-3" x1="50%" x2="50%" y1="0%" y2="100%"><stop offset="0%" stop-color="#05CDFF"/><stop offset="100%" stop-color="#6A8EFF"/></linearGradient><linearGradient id="linearGradient-4" x1="50%" x2="50%" y1="0%" y2="100%"><stop offset="0%" stop-color="#61A8FF"/><stop offset="100%" stop-color="#4B74E5"/></linearGradient></defs><g id="arrow-ui" fill="none" fill-rule="evenodd" stroke="none" stroke-width="1"><g id="arrow-brand" transform="translate(0.000000, -1.000000)"><polygon id="path" fill="url(#linearGradient-1)" points="0 1 34 20.63 0 40.26"/><polygon id="path" fill="url(#linearGradient-1)" points="102.002 1 68.002 20.63 102.002 40.26"/><polygon id="path" fill="url(#linearGradient-2)" points="51 11 0 40.445 0 79.705 51 109.15"/><polygon id="path" fill="url(#linearGradient-3)" points="51 11 102 40.445 102 79.705 51 109.15"/><polygon id="path" fill="url(#linearGradient-4)" points="17 30.436 16.998 30.437 .003 .999 .003 40.249 .001 40.251 .001 79.511 17.003 89.334 42.501 74.574"/><polygon id="path" fill="url(#linearGradient-4)" points="102.002 40.257 102.002 .999 85.002 30.444 85.723 30.861 85.002 30.444 59.502 74.581 85.002 89.333 102.002 79.519"/><polygon id="shadow" fill="#000" points="59.496 74.58 79.169 92.703 85.006 89.335" opacity=".388"/><polygon id="shadow" fill="#000" points="17 74.58 36.673 92.703 42.51 89.335" opacity=".388" transform="translate(29.754982, 83.641502) scale(-1, 1) translate(-29.754982, -83.641502)"/></g></g></svg>