<svg xmlns="http://www.w3.org/2000/svg" xmlns:xlink="http://www.w3.org/1999/xlink" width="64" height="64" version="1.1" viewBox="0 0 64 64"><title>pattern_icon</title><desc>Created with Sketch.</desc><g id="arrow-ui" fill="none" fill-rule="evenodd" stroke="none" stroke-width="1"><g id="icons" transform="translate(-249.000000, -39.000000)"><g id="pattern_icon" transform="translate(249.000000, 39.000000)"><polygon id="background" fill="#61A8FF" points="32 0 59.713 16 59.713 48 32 64 4.287 48 4.287 16"/><g id="Page-1" stroke="#FFF" stroke-linecap="round" stroke-linejoin="round" stroke-width="1.6" transform="translate(14.000000, 18.000000)"><polyline id="Stroke-1" points=".8 11.129 4.998 17.38 9.826 11.6"/><path id="Stroke-3" d="M4.9821,17.3044 C3.2241,9.9494 7.9721,2.7714 14.8541,1.1474 C19.6071,0.0224 24.3691,1.7064 27.3941,5.1244"/><polyline id="Stroke-5" points="34.8 16.104 30.602 9.85 25.774 15.631"/><path id="Stroke-7" d="M30.6179,9.9289 C32.3759,17.2839 27.6279,24.4589 20.7459,26.0859 C15.9929,27.2109 11.2309,25.5239 8.2059,22.1089"/><path id="Stroke-9" d="M17.8,16.6276 C16.138,16.6276 14.789,15.2806 14.789,13.6186 C14.789,11.9526 16.138,10.6056 17.803,10.6026 C19.464,10.6056 20.812,11.9526 20.812,13.6146 C20.812,15.2806 19.464,16.6276 17.8,16.6276 Z"/></g></g></g></g></svg>