<svg xmlns="http://www.w3.org/2000/svg" xmlns:xlink="http://www.w3.org/1999/xlink" width="96" height="110" version="1.1" viewBox="0 0 96 110"><title>B7E59532-B573-4359-AD64-79E8F21DD367</title><desc>Created with sketchtool.</desc><defs><linearGradient id="linearGradient-1" x1="50%" x2="50%" y1=".501%" y2="100%"><stop offset="0%" stop-color="#8D7979"/><stop offset="100%" stop-color="#655656"/></linearGradient><linearGradient id="linearGradient-2" x1="50%" x2="50%" y1=".501%" y2="100%"><stop offset="0%" stop-color="#C0A4A4"/><stop offset="100%" stop-color="#726363"/></linearGradient><linearGradient id="linearGradient-3" x1="0%" x2="0%" y1="-21.334%" y2="156.38%"><stop offset="0%" stop-color="#3E3333"/><stop offset="100%" stop-color="#756A6A" stop-opacity="0"/></linearGradient><linearGradient id="linearGradient-4" x1="0%" x2="0%" y1="-23.279%" y2="155.119%"><stop offset="0%" stop-color="#3E3333"/><stop offset="100%" stop-color="#756A6A" stop-opacity="0"/></linearGradient><linearGradient id="linearGradient-5" x1="50%" x2="50%" y1="-7.625%" y2="76.062%"><stop offset="0%" stop-color="#132532"/><stop offset="100%" stop-color="#132532" stop-opacity="0"/></linearGradient><linearGradient id="linearGradient-6" x1="53.552%" x2="49.093%" y1="0%" y2="62.843%"><stop offset="0%" stop-color="#CBCBCB"/><stop offset="100%" stop-color="#FFF"/></linearGradient><linearGradient id="linearGradient-7" x1="53.668%" x2="48.727%" y1="0%" y2="66.345%"><stop offset="0%" stop-color="#CBCBCB"/><stop offset="100%" stop-color="#FFF"/></linearGradient></defs><g id="Arrow-Website" fill="none" fill-rule="evenodd" stroke="none" stroke-width="1"><g id="Arrow-Fx-Hover" transform="translate(-632.000000, -793.000000)"><g id="features" transform="translate(160.000000, 793.000000)"><g id="feature/fx/active" transform="translate(357.000000, 1.000000)"><g id="fx" transform="translate(0.000000, -1.006667)"><g id="logos/arrow-fx/color" transform="translate(103.000000, 0.000000)"><polygon id="Path" fill="url(#linearGradient-1)" points="60 0 12 96.64 60 72.48"/><polygon id="Path" fill="url(#linearGradient-2)" points="108 0 60 96.64 108 72.48" transform="translate(84.000000, 48.320001) scale(-1, 1) translate(-84.000000, -48.320001)"/><rect id="bound" width="28" height="28.187" x="46" y="56.373" opacity=".262"/><polygon id="Path-5-Copy" fill="url(#linearGradient-3)" fill-opacity=".7" points="73.474 86.033 80.44 64.427 86.966 79.263" transform="translate(80.219910, 75.230026) scale(-1, 1) translate(-80.219910, -75.230026)"/><polygon id="Path-5-Copy-3" fill="url(#linearGradient-4)" fill-opacity=".7" points="60.035 68.505 70.507 37.247 70.507 68.505" transform="translate(65.270996, 52.875684) scale(-1, 1) translate(-65.270996, -52.875684)"/><polygon id="Path-5" fill="url(#linearGradient-5)" fill-opacity=".7" points="12 96.64 60.003 72.48 108 96.64 60 118.559"/><polygon id="path" fill="#FFF" points="60.015 109.764 80 64.427 60 68.453"/><polygon id="path-copy-5" fill="url(#linearGradient-6)" points="60.015 109.764 68.726 77.025 60 78.558"/><polygon id="path-copy-4" fill="#FFF" points="40.015 82.584 60 37.247 40 41.273" transform="translate(50.000000, 59.915487) rotate(-180.000000) translate(-50.000000, -59.915487)"/><polygon id="path-copy-6" fill="url(#linearGradient-7)" points="51.108 70.133 60 37.247 51.093 38.926" transform="translate(55.546509, 53.689669) rotate(-180.000000) translate(-55.546509, -53.689669)"/></g></g></g></g></g></g></svg>